#N canvas 321 108 1022 658 10;
#X obj 252 -32 mrpeach/unpackOSC;
#X obj 251 15 mrpeach/routeOSC /gpredict;
#X obj 251 37 mrpeach/routeOSC /sats;
#X obj 251 -70 mrpeach/udpreceive 7770;
#X obj 252 -5 mrpeach/pipelist;
#X text 374 115 azimuth;
#X floatatom 322 145 10 0 0 0 - - -;
#X floatatom 367 230 10 0 0 0 - - -;
#X floatatom 392 248 10 0 0 0 - - -;
#X obj 249 59 unpack s f f f f;
#X text 409 192 elevación;
#X text 433 227 altitud;
#X text 459 247 velocity;
#X symbolatom 246 85 10 0 0 0 - - -;
#X obj 859 418 outlet;
#X floatatom 792 193 5 0 0 0 - - -;
#X msg 826 133 load 0 160;
#X obj 858 372 line;
#X floatatom 860 398 5 0 0 0 - - -;
#X obj 820 104 loadbang;
#X msg 856 350 0 \, \$1 1000;
#X obj 796 156 mapping/autoscale 0 1;
#X obj 394 137;
#X obj 309 111 s azimuth;
#X obj 329 183 s elevation;
#X obj 805 87 r filter-range;
#X obj 142 341 outlet;
#X obj 299 342 outlet;
#X obj 638 342 outlet;
#X obj 251 -52 maxlib/speedlim 0;
#X obj 142 315 satelliteTrack /NOAA_16;
#X obj 300 316 satelliteTrack /NOAA_19;
#X obj 638 315 satelliteTrack /ISS;
#X connect 0 0 4 0;
#X connect 0 1 4 1;
#X connect 1 0 2 0;
#X connect 2 0 9 0;
#X connect 3 0 29 0;
#X connect 4 0 1 0;
#X connect 6 0 24 0;
#X connect 9 0 13 0;
#X connect 9 1 23 0;
#X connect 9 2 6 0;
#X connect 9 3 7 0;
#X connect 9 4 8 0;
#X connect 13 0 30 0;
#X connect 13 0 31 0;
#X connect 13 0 32 0;
#X connect 15 0 20 0;
#X connect 16 0 21 0;
#X connect 17 0 18 0;
#X connect 18 0 14 0;
#X connect 19 0 16 0;
#X connect 20 0 17 0;
#X connect 21 0 15 0;
#X connect 25 0 21 0;
#X connect 29 0 0 0;
#X connect 30 0 26 0;
#X connect 31 0 27 0;
#X connect 32 0 28 0;
