#N canvas 0 24 1001 490 10;
#X obj 32 15 loadbang;
#X obj 364 200 route 0 1 2 3 4 5 6 7;
#X obj 420 611 symbol;
#X symbolatom 420 647 10 0 0 0 - - OS_pres_name;
#X msg 133 554 Bubbles;
#X msg 7 554 GhostVoices;
#X msg 254 555 Drone;
#X msg 379 559 Windy;
#X msg 512 552 OuterSpace;
#X msg 761 546 InvertMe;
#X msg 641 551 LiftMeUp;
#X text 717 104 All the variables begin with OS_;
#X text 716 135 Typically \, if a variable ends with a 0 it is sent
to the interface slider. Then it will be normalized.;
#X msg 886 547 Falling;
#X obj 364 9 r OS_preset;
#X obj 364 169 f;
#X obj 364 108 del 500;
#X msg 364 138 bang;
#X obj 364 73 t b b f;
#X msg 513 135 \; OS_t_Amp 500 \; OS_Amp0 0;
#X obj 242 12 r OS_trigger;
#X obj 242 68 select 1;
#X obj 242 102 del 500;
#X obj 364 41 f;
#X floatatom 433 48 5 0 0 0 - - -;
#X msg 254 247 \; OS_metro 100 \; OS_LFOspread 70 \; OS_LFO_f0 20 \;
OS_f00 4000 \; OS_Q 30 \; OS_revgain0 1000 \; OS_f_offset0 2600 \;
OS_attack_t 7000 \; OS_decay_t 7000 \; OS_damp0 120 \; OS_WetDry0 50
\; OS_retr_onoff 1 \; OS_polyphony 24 \; OS_RevSize0 75 \; OS_RevDamp0
30 \; OS_RevWidth0 80 \; OS_Amp0 700 \; OS_freq_detune 0 \; OS_v_dens
1 \; OS_retrigg 500 \;;
#X msg 9 247 \; pd dsp 1 \; OS_metro 100 \; OS_LFOspread 50 \; OS_LFO_f0
10 \; OS_f00 3000 \; OS_Q 80 \; OS_revgain0 1000 \; OS_f_offset0 2000
\; OS_attack_t 27000 \; OS_decay_t 27000 \; OS_damp0 100 \; OS_WetDry0
60 \; OS_retr_onoff 0 \; OS_polyphony 24 \; OS_RevSize0 90 \; OS_RevDamp0
50 \; OS_RevWidth0 60 \; OS_Amp0 700 \; OS_freq_detune 0 \; OS_v_dens
1 \;;
#X msg 132 259 \; OS_metro 100 \; OS_LFOspread 70 \; OS_LFO_f0 20 \;
OS_f00 4000 \; OS_Q 30 \; OS_revgain0 1000 \; OS_f_offset0 2600 \;
OS_attack_t 100 \; OS_decay_t 200 \; OS_damp0 120 \; OS_WetDry0 18
\; OS_retr_onoff 0 \; OS_polyphony 24 \; OS_RevSize0 56 \; OS_RevDamp0
30 \; OS_RevWidth0 33 \; OS_Amp0 700 \; OS_freq_detune 0 \; OS_v_dens
1 \;;
#X msg 380 261 \; OS_metro 100 \; OS_LFOspread 80 \; OS_LFO_f0 8 \;
OS_f00 1600 \; OS_Q 8 \; OS_revgain0 1000 \; OS_f_offset0 2600 \; OS_attack_t
3000 \; OS_decay_t 7000 \; OS_damp0 135 \; OS_WetDry0 30 \; OS_retr_onoff
0 \; OS_polyphony 24 \; OS_RevSize0 85 \; OS_RevDamp0 30 \; OS_RevWidth0
99 \; OS_Amp0 700 \; OS_freq_detune 0 \; OS_v_dens 1 \;;
#X msg 509 262 \; OS_metro 100 \; OS_LFOspread 90 \; OS_LFO_f0 10 \;
OS_f00 3600 \; OS_Q 110 \; OS_revgain0 1000 \; OS_f_offset0 2000 \;
OS_attack_t 100 \; OS_decay_t 7000 \; OS_damp0 120 \; OS_WetDry0 99
\; OS_retr_onoff 0 \; OS_polyphony 24 \; OS_RevSize0 99 \; OS_RevDamp0
30 \; OS_RevWidth0 80 \; OS_Amp0 700 \; OS_freq_detune 0 \; OS_v_dens
1 \;;
#X msg 635 264 \; OS_metro 100 \; OS_LFOspread 77 \; OS_LFO_f0 7 \;
OS_f00 6402 \; OS_Q 95 \; OS_revgain0 1000 \; OS_f_offset0 2633 \;
OS_attack_t 10000 \; OS_decay_t 4044 \; OS_damp0 108 \; OS_WetDry0
83 \; OS_retr_onoff 0 \; OS_polyphony 24 \; OS_RevSize0 47 \; OS_RevDamp0
35 \; OS_RevWidth0 88 \; OS_Amp0 700 \; OS_freq_detune 12 \; OS_v_dens
1 \;;
#X msg 759 264 \; OS_metro 500 \; OS_LFOspread 50 \; OS_LFO_f0 50 \;
OS_f00 3000 \; OS_Q 80 \; OS_revgain0 1000 \; OS_f_offset0 2600 \;
OS_attack_t 1000 \; OS_decay_t 100 \; OS_damp0 95 \; OS_WetDry0 30
\; OS_retr_onoff 0 \; OS_polyphony 24 \; OS_RevSize0 30 \; OS_RevDamp0
20 \; OS_RevWidth0 80 \; OS_Amp0 700 \; OS_freq_detune 0 \; OS_v_dens
1 \;;
#X msg 885 250 \; OS_metro 100 \; OS_LFOspread 90 \; OS_LFO_f0 10 \;
OS_f00 3600 \; OS_Q 110 \; OS_revgain0 1000 \; OS_f_offset0 2600 \;
OS_attack_t 100 \; OS_decay_t 7000 \; OS_damp0 120 \; OS_WetDry0 75
\; OS_retr_onoff 0 \; OS_polyphony 24 \; OS_RevSize0 99 \; OS_RevDamp0
30 \; OS_RevWidth0 80 \; OS_Amp0 700 \; OS_freq_detune 6 \; OS_v_dens
1 \; OS_retrigg 700 \;;
#X connect 0 0 26 0;
#X connect 0 0 5 0;
#X connect 1 0 26 0;
#X connect 1 0 5 0;
#X connect 1 1 27 0;
#X connect 1 1 4 0;
#X connect 1 2 25 0;
#X connect 1 2 6 0;
#X connect 1 3 28 0;
#X connect 1 3 7 0;
#X connect 1 4 29 0;
#X connect 1 4 8 0;
#X connect 1 5 30 0;
#X connect 1 5 10 0;
#X connect 1 6 31 0;
#X connect 1 6 9 0;
#X connect 1 7 32 0;
#X connect 1 7 13 0;
#X connect 2 0 3 0;
#X connect 4 0 2 0;
#X connect 5 0 2 0;
#X connect 6 0 2 0;
#X connect 7 0 2 0;
#X connect 8 0 2 0;
#X connect 9 0 2 0;
#X connect 10 0 2 0;
#X connect 13 0 2 0;
#X connect 14 0 23 0;
#X connect 14 0 24 0;
#X connect 15 0 1 0;
#X connect 16 0 17 0;
#X connect 17 0 15 0;
#X connect 18 0 16 0;
#X connect 18 1 19 0;
#X connect 18 2 15 1;
#X connect 20 0 21 0;
#X connect 21 0 22 0;
#X connect 22 0 23 0;
#X connect 23 0 18 0;
#X coords 0 0 1 1 105 30 0;
