#N canvas 2 153 450 498 10;
#X obj 118 113 bng 15 250 50 0 empty empty empty 17 7 0 10 -262144
-1 -1;
#X msg 111 138 0;
#X floatatom 168 231 8 0 0 0 - - -;
#X floatatom 169 281 5 0 0 0 - - -;
#X obj 168 254 / 250;
#X obj 169 310 * 100;
#X floatatom 171 334 5 0 0 0 - - -;
#X obj 168 357 maxlib/speedlim 1000;
#X obj 63 114 bng 15 250 50 0 empty empty empty 17 7 0 10 -262144 -1
-1;
#X msg 65 143 1;
#X obj 45 223 spigot 0;
#X obj 54 360 > 0;
#X obj 53 381 sel 1;
#X obj 50 427 bng 15 250 50 0 empty empty empty 17 7 0 10 -262144 -1
-1;
#X obj 80 421 bng 15 250 50 0 empty empty empty 17 7 0 10 -262144 -1
-1;
#X msg 48 454 1;
#X msg 84 477 0;
#X obj 54 320 spigot 0;
#X obj 52 298 f;
#X obj 56 521 outlet;
#X obj 61 264 r elevation;
#X obj 33 201 r azimuth;
#X obj 145 379 s filter-range;
#X obj 73 40 inlet;
#X obj 63 78 sel \$1;
#X obj 164 466 playstop;
#X connect 0 0 1 0;
#X connect 1 0 10 1;
#X connect 1 0 17 1;
#X connect 2 0 4 0;
#X connect 3 0 5 0;
#X connect 4 0 3 0;
#X connect 5 0 6 0;
#X connect 6 0 7 0;
#X connect 7 0 22 0;
#X connect 8 0 9 0;
#X connect 8 0 18 0;
#X connect 9 0 10 1;
#X connect 9 0 17 1;
#X connect 10 0 2 0;
#X connect 11 0 12 0;
#X connect 12 0 13 0;
#X connect 12 1 14 0;
#X connect 13 0 15 0;
#X connect 13 0 25 0;
#X connect 14 0 16 0;
#X connect 15 0 19 0;
#X connect 16 0 19 0;
#X connect 17 0 11 0;
#X connect 18 0 17 0;
#X connect 20 0 18 1;
#X connect 21 0 10 0;
#X connect 23 0 24 0;
#X connect 24 0 8 0;
#X connect 24 1 0 0;
