#N canvas 1 84 1001 511 10;
#X obj 376 17 inlet~;
#X obj 469 107 line~;
#X obj 375 139 *~;
#X text 116 60 SOUND GENERATOR;
#X obj 469 77 pack 0 1000;
#X obj 469 19 r OS_trigger;
#X obj 581 65 select 1;
#X obj 624 89 bng 15 250 50 0 empty empty empty 0 -6 0 8 -262144 -1
-1;
#X obj 469 48 t f f;
#X obj 624 117 delay 1000;
#X text 730 152 set polyphony to 1 when ON/OFF is set to OFF;
#X msg 624 147 \; OS_polyphony 1 \; OS_Amp0 0 \;;
#X obj 135 214 voice_n 2;
#X obj 39 215 voice_n 1;
#X obj 39 272 voice_n 17;
#X obj 39 243 voice_n 9;
#X obj 765 220 voice_n 8;
#X obj 135 271 voice_n 18;
#X obj 239 273 voice_n 19;
#X obj 239 216 voice_n 3;
#X obj 345 220 voice_n 4;
#X obj 458 220 voice_n 5;
#X obj 563 219 voice_n 6;
#X obj 665 217 voice_n 7;
#X obj 135 242 voice_n 10;
#X obj 239 244 voice_n 11;
#X obj 345 248 voice_n 12;
#X obj 458 248 voice_n 13;
#X obj 563 247 voice_n 14;
#X obj 665 245 voice_n 15;
#X obj 765 248 voice_n 16;
#X obj 345 277 voice_n 20;
#X obj 458 277 voice_n 21;
#X obj 563 276 voice_n 22;
#X obj 665 274 voice_n 23;
#X obj 765 277 voice_n 24;
#X connect 0 0 2 0;
#X connect 1 0 2 1;
#X connect 2 0 12 0;
#X connect 2 0 13 0;
#X connect 2 0 14 0;
#X connect 2 0 15 0;
#X connect 2 0 16 0;
#X connect 2 0 17 0;
#X connect 2 0 18 0;
#X connect 2 0 19 0;
#X connect 2 0 20 0;
#X connect 2 0 21 0;
#X connect 2 0 22 0;
#X connect 2 0 23 0;
#X connect 2 0 24 0;
#X connect 2 0 25 0;
#X connect 2 0 26 0;
#X connect 2 0 27 0;
#X connect 2 0 28 0;
#X connect 2 0 29 0;
#X connect 2 0 30 0;
#X connect 2 0 31 0;
#X connect 2 0 33 0;
#X connect 2 0 34 0;
#X connect 2 0 35 0;
#X connect 4 0 1 0;
#X connect 5 0 8 0;
#X connect 6 1 7 0;
#X connect 7 0 9 0;
#X connect 8 0 4 0;
#X connect 8 1 6 0;
#X connect 9 0 11 0;
